<svg width="100%" height="100%" xmlns="http://www.w3.org/2000/svg" xmlns:xlink="http://www.w3.org/1999/xlink">
	<style>
		.landscape, 
		.full {
			visibility: hidden;
		}
		
		@media screen and (min-width: 500px) {
			.square {
				visibility: hidden;
			}
			
			.landscape {
				visibility: visible;
			}
		}
		
		@media screen and (min-width: 1200px) {
			.square,
			.landscape{
				visibility: hidden;
			}
			
			.full {
				visibility: visible;
			}
		}
	</style>
	
	<symbol id="icon" viewBox="0 0 60 60">
		<path fill="#fff" d="M0 0h60v60H0z"/>
		<path id="flag" d="M71.176 21.977l-5.832-2.592a1.4 1.4 0 0 0-1.325.089 1.532 1.532 0 0 0-.619 1.162v10.9a1.414 1.414 0 1 0 2.828 0v-4.823l5.037-2.234a1.349 1.349 0 0 0 .8-1.251 1.67 1.67 0 0 0-.889-1.251z" transform="translate(-34.682 -2.049)" fill="#f26322"/>
		<path id="castle" d="M60.944 0a30.424 30.424 0 0 0-6.892 59.963A2.152 2.152 0 0 0 56.437 58v-7.331a4.551 4.551 0 0 1 4.507-4.558 4.477 4.477 0 0 1 4.418 4.558V58a2.1 2.1 0 0 0 2.386 1.966A30.318 30.318 0 0 0 90.9 30.384 30.116 30.116 0 0 0 60.944 0zm18.291 46.827a1.509 1.509 0 0 1-2.474-.715l-2.474-16.533a1.066 1.066 0 0 0-1.06-.983h-4.419a1.176 1.176 0 0 0-1.149 1.162v3.4H64.3v-3.4a1.176 1.176 0 0 0-1.147-1.158h-4.418a1.176 1.176 0 0 0-1.149 1.162v3.4h-3.358v-3.4a1.176 1.176 0 0 0-1.149-1.162h-4.418a1.066 1.066 0 0 0-1.06.983l-2.474 16.439v-.447a1.588 1.588 0 0 1-2.386 1.43 24.992 24.992 0 0 1-6.362-16.622 24.479 24.479 0 1 1 48.954 0 24.483 24.483 0 0 1-6.098 16.444z" transform="translate(-30.9)" fill="#334047"/>
	</symbol>
	
	<symbol id="type" viewbox="0 0 180 50">
		<path fill="#fff" d="M0 0h180v50H0z"/>
		<path id="Path_3" data-name="Path 3" fill="#334047" d="M11.769 109.821a7.542 7.542 0 0 0 6.369 2.949 13.009 13.009 0 0 0 6.646-1.685 3.9 3.9 0 0 1 1.662-.562 1.734 1.734 0 0 1 .831.14c.277.14.554.14.692.281a1.089 1.089 0 0 1 .554.562c.138.281.277.421.415.7a2.393 2.393 0 0 1 .277.7c0 .14.138.562.138.843a4.162 4.162 0 0 1-1.523 3.09 11.947 11.947 0 0 1-4.431 2.107 22.583 22.583 0 0 1-6.369.843 16.9 16.9 0 0 1-12.323-4.916C1.662 111.788 0 107.434 0 102.1a18.007 18.007 0 0 1 2.215-8.989 16.938 16.938 0 0 1 6.231-6.32 17.6 17.6 0 0 1 9-2.388 18.78 18.78 0 0 1 5.815.843 13.7 13.7 0 0 1 4.292 2.107 3.965 3.965 0 0 1 1.246 1.4 3.237 3.237 0 0 1 .415 1.545 3.473 3.473 0 0 1-.831 2.247 2.928 2.928 0 0 1-2.077.983h-.831c-.138 0-.138 0-.277-.14-.138 0-.138-.14-.277-.14s-.138-.14-.277-.14a13.837 13.837 0 0 0-5.815-1.545 10.439 10.439 0 0 0-3.738.7 7.073 7.073 0 0 0-2.908 2.107 7.805 7.805 0 0 0-1.8 3.371 14.561 14.561 0 0 0-.692 4.494 12.217 12.217 0 0 0 2.078 7.586z" transform="translate(0 -69.934)"/>
		<path id="Path_4" data-name="Path 4" fill="#334047" d="M24.654 106.029a7.736 7.736 0 0 1 1.662-2.949 9.946 9.946 0 0 1 2.769-1.966 21.165 21.165 0 0 1 4.154-1.264 31.918 31.918 0 0 1 5.4-.562c1.938-.14 4.154-.14 6.923-.14v-2.529q0-5.9-5.815-5.9a21.672 21.672 0 0 0-4.015.421 14.535 14.535 0 0 0-3.046.843c-.692.281-1.523.562-2.769 1.124-.138 0-.277.14-.415.14h-.692a2.619 2.619 0 0 1-2.077-1.124 3.848 3.848 0 0 1-.831-2.388 2.862 2.862 0 0 1 .415-1.545 3.285 3.285 0 0 1 1.246-1.124A28.776 28.776 0 0 1 40.3 84.4a23.285 23.285 0 0 1 5.677.7 14.691 14.691 0 0 1 4.431 2.247 10.623 10.623 0 0 1 3.046 4.213 17.954 17.954 0 0 1 1.108 6.461v16.713a4.712 4.712 0 0 1-1.246 3.511 4.042 4.042 0 0 1-3.046 1.264 3.865 3.865 0 0 1-2.077-.562 4.381 4.381 0 0 1-2.215-4.213v-.983a8.79 8.79 0 0 1-3.877 4.494 12.978 12.978 0 0 1-6.369 1.545 12.587 12.587 0 0 1-8.308-2.669 8.837 8.837 0 0 1-3.323-7.163 15.771 15.771 0 0 1 .553-3.929zm15.646 7.444a11.094 11.094 0 0 0 2.631-1.826 9.273 9.273 0 0 0 2.631-6.742v-1.124h-3.6c-.969 0-1.938.14-2.908.14q-1.454.211-2.492.421a9.531 9.531 0 0 0-1.8.7 3.022 3.022 0 0 0-1.246.983 4.418 4.418 0 0 0-.692 1.4 7.21 7.21 0 0 0-.277 1.826 5.3 5.3 0 0 0 1.246 3.652 4.905 4.905 0 0 0 3.6 1.264 7.954 7.954 0 0 0 2.907-.694z" transform="translate(9.269 -69.934)"/>
		<path id="Path_5" data-name="Path 5" fill="#334047" d="M51.077 114.818a2.337 2.337 0 0 1-.277-1.4 3.344 3.344 0 0 1 .277-1.124 2.272 2.272 0 0 1 .554-.983 2.485 2.485 0 0 1 .969-.7 4 4 0 0 1 1.246-.281 3.015 3.015 0 0 1 1.8.562 7.175 7.175 0 0 1 .692.421 7.166 7.166 0 0 0 .692.421 3.892 3.892 0 0 1 .831.421 6.7 6.7 0 0 1 .969.421 6.7 6.7 0 0 0 .969.421 9.454 9.454 0 0 1 1.108.421c.415.14.692.14 1.246.281a4.211 4.211 0 0 0 1.385.14h1.385a12.492 12.492 0 0 0 2.354-.14 6.769 6.769 0 0 0 2.215-.7 3.786 3.786 0 0 0 1.662-1.264 3.258 3.258 0 0 0 .554-1.966 3.183 3.183 0 0 0-1.108-2.247 7.392 7.392 0 0 0-3.323-1.545l-4.985-1.4c-1.246-.281-2.215-.7-2.908-.843l-2.492-.843a14.045 14.045 0 0 1-2.077-1.124l-1.662-1.264a4.839 4.839 0 0 1-1.246-1.685 7.475 7.475 0 0 1-.692-2.107 15.771 15.771 0 0 1-.277-2.669 8.582 8.582 0 0 1 .969-4.213 9.828 9.828 0 0 1 2.769-3.09 12.075 12.075 0 0 1 4.293-1.839 22.13 22.13 0 0 1 5.538-.7 24.968 24.968 0 0 1 10.938 2.528 3.4 3.4 0 0 1 1.523 1.264 4.032 4.032 0 0 1 .554 1.685 3.386 3.386 0 0 1-.692 1.966 2.5 2.5 0 0 1-1.938.843H74.2c-.277 0-.415-.14-.692-.14a.426.426 0 0 1-.277-.14A24.806 24.806 0 0 0 65.2 90.52a15.125 15.125 0 0 0-2.631.281 4.788 4.788 0 0 0-2.077.983 2.278 2.278 0 0 0-.831 1.826 2.635 2.635 0 0 0 .969 2.247 9.233 9.233 0 0 0 3.462 1.4l4.985 1.264a26.645 26.645 0 0 1 4.708 1.545 13.454 13.454 0 0 1 3.323 2.107 7.171 7.171 0 0 1 2.077 2.949 11.069 11.069 0 0 1 .692 3.933 9.739 9.739 0 0 1-1.8 6.039 10.437 10.437 0 0 1-4.846 3.652 18.677 18.677 0 0 1-7.062 1.124A22.881 22.881 0 0 1 52.6 115.8a1.857 1.857 0 0 1-1.523-.982z" transform="translate(19.538 -70.015)"/>
		<path id="Path_6" data-name="Path 6" fill="#334047" d="M81.923 120.323c-1.8-1.966-2.631-4.916-2.631-8.708V94.9h-2.769c-2.215 0-3.323-1.124-3.323-3.23a2.989 2.989 0 0 1 .831-2.247 3.23 3.23 0 0 1 2.354-.843h3.323l.969-7.865c.415-3.23 1.938-4.916 4.569-4.916 2.354 0 3.6 1.685 3.6 4.916v7.865h4.846c2.077 0 3.185 1.124 3.185 3.23s-1.108 3.09-3.323 3.09h-4.846v14.466a11.753 11.753 0 0 0 .831 5.2 3.172 3.172 0 0 0 3.046 1.685H93l2.215-.14h.138a2.175 2.175 0 0 1 2.077.983 3.575 3.575 0 0 1 .831 2.388 4.207 4.207 0 0 1-.277 1.4 2.519 2.519 0 0 1-.692.983 3.827 3.827 0 0 1-1.108.7l-1.246.421c-.415.14-.969.14-1.523.281-.692 0-1.246.14-1.662.14h-2.63a10.065 10.065 0 0 1-7.2-3.084z" transform="translate(28.154 -73.412)"/>
		<path id="Path_7" data-name="Path 7" fill="#334047" d="M96.046 122.134a6.352 6.352 0 0 1-1.246-4.214v-38.2a6.352 6.352 0 0 1 1.246-4.22 4.18 4.18 0 0 1 3.462-1.4 4.47 4.47 0 0 1 3.6 1.4 6.352 6.352 0 0 1 1.246 4.213v38.2a6.352 6.352 0 0 1-1.246 4.213 4.47 4.47 0 0 1-3.6 1.4 4.18 4.18 0 0 1-3.462-1.392z" transform="translate(36.462 -74.1)"/>
		<path id="Path_8" data-name="Path 8" fill="#334047" d="M111.285 115.118c-3.323-3.09-4.985-7.584-4.985-13.2a17.961 17.961 0 0 1 2.077-8.708 15.3 15.3 0 0 1 5.954-6.32 17.745 17.745 0 0 1 9.138-2.388 16.294 16.294 0 0 1 7.062 1.4 10.922 10.922 0 0 1 4.846 3.652 18.73 18.73 0 0 1 2.769 5.2 23.2 23.2 0 0 1 .969 6.32 2.933 2.933 0 0 1-.692 2.107 2.594 2.594 0 0 1-2.077.843h-20.631c.277 6.18 3.462 9.27 9.415 9.27a14.245 14.245 0 0 0 8.723-3.371 2.441 2.441 0 0 1 1.385-.562 3.222 3.222 0 0 1 1.108.281 1.869 1.869 0 0 1 .969.843 3.065 3.065 0 0 1 .692 1.124 4.151 4.151 0 0 1 .277 1.264v.843c0 .14-.138.14-.138.281s-.138.14-.138.281-.138.14-.138.281-.138.14-.277.281l-.277.281a18.672 18.672 0 0 1-13.015 4.775c-5.401-.143-9.693-1.688-13.016-4.778zm20.077-16.011c-.415-5.9-2.908-8.848-7.615-8.848a7.016 7.016 0 0 0-5.677 2.528 10.446 10.446 0 0 0-2.215 6.18h15.508z" transform="translate(40.885 -69.893)"/>
	</symbol>
	
	<symbol id="landscape" viewBox="0 0 274 75">
		<use xlink:href="#icon" x="0" y="0" width="75" height="75"/>
		<use xlink:href="#type" x="94" y="12" height="50" width="180"/>
	</symbol>
	
	<symbol id="full" viewBox="0 0 180 150">
		<use xlink:href="#icon" x="42" y="0" width="92" height="92"/>
		<use xlink:href="#type" x="0" y="100" height="50" width="180"/>
	</symbol>
	
	<use class="square" xlink:href="#icon" x="0" y="0" width="60" height="60"/>
	<use class="landscape" xlink:href="#landscape" x="0" y="0" width="274" height="75"/>
	<use class="full" xlink:href="#full" x="0" y="0" width="178" height="150"/>
</svg>