<svg id="symbologySVG" width="140px" height="210px" xmlns:symbology="http:www.symbologysvg.net" xmlns="http://www.w3.org/2000/svg" xmlns:xlink="http://www.w3.org/1999/xlink" contentScriptType="text/ecmascript" contentStyleType="text/css" preserveAspectRatio="xMidYMid meet" version="1.0" zoomAndPan="magnify">  
	<desc>Symbology</desc>  <defs id="defs"/>
    <g data-scale="1.0" id="root" transform="scale(0.5) ">        
		<path d="M261.81 0 C259.43 0 257.08 0.21 255.06 0.47 L255.06 0.47 C241.45 1 222.75 5.2 203 12.75 C171.5 24.79 147.75 41.55 144.81 52.89 L144.81 52.89 L138.61 62.84 L137.7 63.28 L137.7 63.28 C135.25 65.77 130.06 68.96 123.81 71.73 C121.17 72.88 118.7 73.89 116.38 74.59 L116.38 74.59 L115.37 75.16 L115.37 75.16 C114.88 75.19 114.35 75.25 113.87 75.41 L113.87 75.41 C111.7 75.96 109.84 76.31 108.37 76.38 L108.37 76.38 L81.88 81.56 C69.59 83.94 60.17 89.53 60 94.44 L60 94.44 C59.89 95.17 59.94 95.88 60.17 96.64 L64.06 108.02 L64.06 108.02 C64.73 109.17 65.21 110.53 65.49 112.12 L65.49 112.12 L65.92 113.38 L65.92 113.38 L65.7 113.87 L65.7 113.87 C65.74 114.24 65.74 114.63 65.74 114.99 C65.74 120.2 63.46 124.44 60.5 124.99 L60.5 124.99 L46.28 132.23 C43.51 133.67 42.12 136.75 42.82 139.7 L42.82 139.7 L41.69 147.67 L41.69 147.67 L35.25 148.79 L35.25 148.79 C34.94 148.79 34.66 148.87 34.35 148.93 L34.35 148.93 L33.23 149.17 C31.64 149.42 30.56 150.92 30.88 152.58 L30.91 152.86 L30.91 152.86 L27.03 166.29 L27.03 166.29 L7.35 183.45 C5.39 185.12 4.04 187.12 3.29 189.12 L3.29 189.12 C0.11 195.06 1.02 202.62 6.06 207.62 L92.91 294.46 L92.91 294.46 L93.31 295.45 L93.31 295.45 C95.17 297.75 96.99 300.98 98.64 304.58 C100.21 308.21 101.37 311.71 101.89 314.62 L101.89 314.62 L102.56 316.09 L102.56 316.09 C102.52 316.48 102.52 316.83 102.52 317.21 L102.52 331.43 C102.52 341.71 110.81 350 121.1 350 L259.84 350 C270.11 350 278.46 341.71 278.46 331.43 L278.46 317.21 C278.46 307.55 271.08 299.58 261.71 298.7 L261.71 298.7 L253.87 306.74 C250.68 310.11 246.34 311.83 242.08 311.83 C237.98 311.83 233.84 310.24 230.62 307.21 L228.56 305.18 C226.98 303.71 225.83 301.99 224.98 300.21 L224.98 300.21 C224.81 299.93 224.61 299.58 224.43 299.25 L220.62 292.96 C217.56 287.89 219.25 281.24 224.33 278.23 L235.45 271.5 L235.45 271.5 L235.39 271.46 L235.39 271.46 C236.25 270.8 236.72 270.11 236.58 269.5 C236.58 269.36 236.5 269.23 236.47 269.12 L236.47 269.12 C236.47 269.12 236.47 269.08 236.47 269.08 C236.86 268.21 234.93 266.21 231.43 263.95 L231.43 263.95 C224.33 261 215.81 257.05 206.86 252.22 C186.87 241.62 171.37 230.84 169.31 226.36 L169.31 226.36 C168.89 226 168.5 225.7 168.25 225.2 C166.04 221.95 168.25 216.62 173.18 213.29 L183.68 206.23 L183.68 206.23 C187.81 202 188.06 195.23 184 190.75 L182.75 189.25 C180.5 186.81 177.42 185.54 174.37 185.54 C171.68 185.54 168.98 186.48 166.81 188.48 L166.5 188.73 L166.5 188.73 L159.12 200.06 C157.68 202.31 155.23 203.56 152.75 203.56 C151.62 203.56 150.5 203.33 149.42 202.79 L149.42 202.79 C148.45 202.31 147.33 201.67 146.23 200.73 L146.23 200.73 L145.29 200.17 C144.11 199.37 143.2 198.31 142.64 197.12 L142.64 197.12 C139.93 193.95 137.31 189.56 135.11 184.5 C134.06 182 133.25 179.56 132.62 177.17 L132.62 177.17 C132.48 176.93 132.37 176.62 132.31 176.37 L130.17 168.81 C128.64 163.5 131.67 157.92 137.06 156.36 L149.81 152.75 L149.81 152.75 C158.62 149.81 164.75 146.06 164.12 143.5 C164.06 143.43 164.06 143.29 163.95 143.12 L163.95 143.12 C163.87 142.64 163.64 142.17 163.25 141.62 L163.25 141.62 L159.18 138.61 L159.18 138.61 C159.12 138.5 159.04 138.5 158.95 138.43 L158.95 138.43 L158.95 138.37 L155.62 135.87 C155.31 135.64 155.06 135.42 154.89 135.11 L154.89 135.11 C154.67 135 154.5 134.87 154.33 134.75 C149.67 130.98 151.06 121.63 157.37 113.87 C161 109.27 165.62 106.31 169.68 105.28 L169.68 105.28 C171.06 104.7 172.48 104.38 173.86 104.38 C177.5 104.38 181.06 106.41 182.81 109.88 L184.67 113.55 L185.06 113.24 L185.06 113.24 C185.12 113.75 185.2 114.31 185.29 114.81 L185.29 114.81 L187.18 118.49 L187.18 118.49 C187.5 118.73 187.81 118.87 188.14 119 C188.37 119.12 188.73 119.19 189.04 119.19 C193.87 119.19 201.37 108.31 206.43 93.7 C206.62 93.14 206.83 92.59 207 92.06 L207 92.06 L207.7 91.37 L207.7 91.37 C214.95 74.59 222.29 61.37 228.11 54.5 L228.11 54.5 C228.95 53.17 230.06 52.01 231.33 51.14 L231.33 51.14 C232.75 49.98 234.09 49.28 235.2 49.28 C235.31 49.28 235.39 49.28 235.56 49.37 L235.56 49.37 C236.33 49.14 237.2 49.09 238 49.09 C243.2 49.09 247.56 52.34 249.25 57 L249.25 57 C249.34 57 249.45 57.03 249.48 57.03 L249.48 57.03 C251.23 61.01 255.23 63.75 259.84 63.75 C266.08 63.75 271.11 58.75 271.11 52.48 C271.11 47.78 268.24 43.75 264.23 42.12 L264.23 42.12 C256.39 40.64 250.86 37.17 251.09 33.53 C251.09 32.87 251.37 32.17 251.84 31.62 L251.84 31.62 C253.37 27.83 258.34 21.78 264.96 15.82 C269.61 11.62 274.2 8.31 277.83 6.24 L277.83 6.24 C278.25 5.81 278.46 5.39 278.46 4.95 C278.46 2.22 271.05 0 261.81 0 Z " fill="#0178af" fill-opacity="1.0" id="eldacb7c1e" stroke="#ffffff" stroke-opacity="1.0" stroke-width="0" symbology:group="1" symbology:type="ShapedSymbol"/>
        <path d="M76.29 363.25 C73.94 360.9 70.1 360.9 67.74 363.27 C66.69 364.31 66.11 365.66 65.99 367.03 L66.08 368.26 C66.37 369.36 66 370.53 65.08 371.17 C64.07 371.9 62.7 371.76 61.74 370.92 L61.42 370.61 C61.4 370.59 61.37 370.55 61.35 370.52 L61.35 370.52 L61.34 370.53 L52.6 361.79 C51.68 360.87 50.19 360.88 49.28 361.79 L40.78 370.29 L40.78 370.29 L40.78 370.29 C40.76 370.32 40.71 370.35 40.68 370.38 L40.68 370.38 L40.38 370.68 L40.38 370.68 C39.55 371.65 39.41 373.02 40.13 374.04 C40.2 374.17 40.3 374.27 40.41 374.37 C41.07 375.04 42.08 375.29 43.04 375.04 L44.28 374.95 C45.64 375.07 46.99 375.64 48.05 376.69 C50.4 379.05 50.4 382.88 48.04 385.24 C45.68 387.6 41.84 387.6 39.49 385.25 C38.44 384.2 37.86 382.85 37.74 381.48 L37.83 380.25 C38.08 379.3 37.84 378.28 37.17 377.61 C37.06 377.51 36.95 377.42 36.83 377.33 C35.81 376.62 34.45 376.76 33.49 377.58 L33.49 377.58 L33.18 377.89 L33.18 377.89 C33.16 377.9 33.15 377.92 33.14 377.94 L33.13 377.93 L24.11 386.95 C23.19 387.87 23.2 389.35 24.12 390.27 L32.86 399.01 L32.86 399.01 L32.86 399.01 C32.89 399.04 32.92 399.07 32.94 399.09 L33.25 399.41 C34.21 400.25 35.58 400.39 36.58 399.67 C37.52 399.02 37.88 397.85 37.59 396.75 L37.51 395.52 C37.62 394.15 38.2 392.8 39.26 391.75 C41.62 389.39 45.44 389.39 47.8 391.75 C50.16 394.11 50.17 397.94 47.81 400.3 C46.75 401.35 45.4 401.94 44.04 402.04 L42.81 401.96 C41.7 401.68 40.53 402.03 39.88 402.96 C39.17 403.98 39.31 405.35 40.15 406.3 L40.45 406.6 C40.47 406.62 40.48 406.63 40.49 406.65 L40.49 406.65 L49.28 415.43 C50.2 416.35 51.68 416.36 52.6 415.44 L61.62 406.42 L61.62 406.42 C61.64 406.41 61.65 406.39 61.66 406.38 L61.66 406.38 L61.98 406.07 L61.98 406.07 C62.93 405.24 64.3 405.11 65.31 405.81 C65.43 405.9 65.55 406 65.65 406.1 C66.33 406.77 66.56 407.79 66.32 408.74 L66.23 409.97 C66.35 411.34 66.93 412.69 67.97 413.73 C70.34 416.1 74.16 416.09 76.52 413.72 C78.88 411.36 78.9 407.54 76.53 405.18 C75.48 404.13 74.13 403.56 72.76 403.44 L71.53 403.53 C70.57 403.78 69.57 403.54 68.89 402.86 C68.79 402.76 68.69 402.65 68.61 402.52 C67.89 401.51 68.04 400.13 68.87 399.17 L68.87 399.17 L69.17 398.87 L69.17 398.87 C69.2 398.84 69.24 398.81 69.27 398.78 L69.27 398.78 L69.27 398.78 L77.77 390.28 C78.68 389.37 78.68 387.87 77.76 386.95 L68.98 378.16 L68.98 378.16 C68.96 378.15 68.95 378.14 68.93 378.12 L68.63 377.82 C67.8 376.86 67.66 375.49 68.38 374.47 C69.01 373.55 70.19 373.19 71.3 373.47 L72.52 373.56 C73.9 373.44 75.24 372.86 76.29 371.81 C78.65 369.45 78.66 365.61 76.29 363.25 Z " fill="#0178af" fill-opacity="1.0" id="eladc7c27d" stroke="#ffffff" stroke-opacity="1.0" stroke-width="0" symbology:group="1" symbology:type="ShapedSymbol"/>
        <text fill="#0178af" fill-opacity="1.0" font-family="serif" font-size="38" font-weight="bold" id="el8f9adc1a" symbology:group="1" symbology:type="PlainText" x="100" y="387">Symbology</text>    
		<text fill="#0178af" fill-opacity="1.0" font-family="serif" font-size="18" font-weight="bold" id="el99bc9551" symbology:group="1" symbology:type="PlainText" x="100" y="415">Visualize         Your         Domain</text>  
	</g>
</svg>
